<?xml version="1.0" encoding="UTF-8"?>
<svg id="_Шар_2" data-name="Шар 2" xmlns="http://www.w3.org/2000/svg" viewBox="0 0 961.97 186.11">
  <defs>
    <style>
      .cls-1 {
        fill: #ff0;
      }

      .cls-1, .cls-2, .cls-3, .cls-4 {
        stroke-width: 0px;
      }

      .cls-2, .cls-5, .cls-6 {
        fill: none;
      }

      .cls-3 {
        fill: #f3e600;
      }

      .cls-4 {
        fill: #fff;
      }

      .cls-5 {
        stroke: #ff0;
        stroke-width: 3.3px;
      }

      .cls-5, .cls-6 {
        stroke-miterlimit: 10;
      }

      .cls-6 {
        stroke: #fff;
        stroke-width: 8.26px;
      }
    </style>
  </defs>
  <g id="Logo">
    <g>
      <path class="cls-2" d="m95.84,101.18c-.06-.22-.24-.38-.44-.39l-6.22-.4s-.04,0-.05,0c-.22-.43-.45-.84-.69-1.25l3.2-5.25c.11-.19.08-.44-.09-.61l-3.86-3.99c-.16-.16-.4-.21-.58-.12l-5.59,2.75c-.07.03-.12.08-.16.13-.33-.2-.67-.39-1.01-.57,0-.04.01-.07.01-.11l-.21-6.28c0-.22-.18-.41-.41-.46l-5.42-1.21c-.22-.05-.45.04-.55.22l-2.9,4.91v.11c0,.73-.24,1.33-.72,1.81l-1.04-1.01v-.34l-3.53-5.18c-.12-.18-.37-.25-.59-.17l-5.23,1.87c-.21.08-.36.27-.35.48l.19,6.23s0,.06.01.09c-.4.26-.8.54-1.18.83-.03-.03-.07-.05-.11-.07l-5.75-2.53c-.2-.09-.44-.02-.59.17l-3.44,4.36c-.14.18-.16.42-.04.59l3.47,5.18c.04.06.09.1.14.13-.23.5-.44,1.01-.63,1.53-.02,0-.03,0-.05,0l-6.21.94c-.21.03-.38.22-.41.46l-.57,5.52c-.02.23.09.44.28.52l5.7,2.52c.07.03.14.04.21.03.09.61.2,1.22.34,1.82-.01,0-.03.02-.04.03l-4.58,4.3c-.16.15-.19.4-.08.61l2.66,4.87c.11.2.32.31.53.27l6.12-1.15s.02,0,.03,0c.37.42.76.83,1.17,1.21l-1.57,6.05c-.05.21.05.44.26.56l4.85,2.7c.2.11.44.09.59-.05l4.56-4.25s.02-.03.03-.04c.09.02.17.04.26.06,0-.09-.02-.18-.02-.28v-2.05c0-.73.24-1.33.72-1.81l1.06,1.01v3.52s.03,0,.04,0l1.8,5.76c.06.21.28.35.52.33l2.11-.1v-3.77l1.03-.82c.49.51.74,1.13.74,1.84v2.05c0,.22-.03.42-.07.61l1.73-.09c.23-.01.42-.16.47-.36l1.62-6.01c.02-.08.02-.15,0-.22.43-.14.86-.31,1.28-.48v-1.47c0-.73.24-1.33.72-1.81l1.06,1.01v3.22l3.54,2.74c.17.13.43.12.61-.02l4.39-3.4c.18-.14.25-.37.18-.56l-2.11-5.86s-.04-.08-.07-.12c.36-.45.7-.92,1.02-1.41l6.19.58c.22.02.43-.12.51-.35l1.89-5.22c.08-.21.02-.45-.15-.58l-4.92-3.82c-.06-.04-.12-.07-.19-.08.04-.45.07-.9.08-1.36.05,0,.1-.02.14-.04l5.5-3.03c.19-.1.28-.34.22-.57l-1.37-5.38Zm-14.04-7.94h2.73c.71,0,1.31.24,1.81.72l-1.04,1.01h-4.25l-1.06-1.01c.5-.48,1.11-.72,1.81-.72Zm-1.32,33.08l-1.06-1.01c.5-.48,1.11-.72,1.81-.72h2.73c.71,0,1.31.24,1.81.72l-1.04,1.01h-4.25Zm6.13,2.97c0,.72-.25,1.33-.74,1.85l-1.03-.82v-3.88l1.04-1.01c.48.48.72,1.09.72,1.81v2.05Zm.56-25.38c0,.73-.24,1.33-.72,1.81l-.14-.13c.35,1.32.54,2.71.54,4.15,0,3.45-1.09,6.64-2.93,9.26v1.2c0,.73-.24,1.33-.72,1.81l-.99-.96c-2.41,2.45-5.6,4.13-9.17,4.64.33.43.51.95.51,1.55v2.05c0,.72-.25,1.33-.74,1.85l-1.03-.82v-3.88l.7-.68c-.08,0-.17.02-.25.02l-.56.54h-4.25l-1.06-1.01s.04-.03.06-.04c-6.81-1.88-11.82-8.12-11.82-15.54s5.19-13.89,12.2-15.64c0,0,0-.01.01-.02h.01c.06,0,.12-.02.19-.03l-.08-.08c.5-.48,1.11-.72,1.81-.72h2.73c.6,0,1.12.19,1.58.54,2.21.32,4.28,1.08,6.1,2.21v-.1c0-.73.24-1.33.72-1.81l1.06,1.01v2.16c1.9,1.56,3.44,3.55,4.47,5.81v-2.24l1.03-.82c.49.51.74,1.13.74,1.84v2.05Zm0-5.97c0,.72-.25,1.33-.74,1.84l-1.03-.82v-3.88l1.04-1.01c.48.48.72,1.09.72,1.81v2.05Z"/>
      <path class="cls-2" d="m138.3,121.11l-4.26-2.03s-.1-.03-.15-.03c-.04-.34-.1-.68-.16-1.01.03-.01.07-.03.1-.06l3.58-3.13c.12-.11.15-.3.07-.46l-1.88-3.75c-.08-.15-.24-.24-.39-.22l-4.66.71s-.03,0-.04.01c-.23-.28-.47-.55-.71-.81l1.04-3.03h-.66c-.71,0-1.31-.24-1.81-.72l1.06-1.01h1.81s-.05-.06-.08-.08l-1.84-1.22v1.18l-1.06,1.01c-.48-.48-.72-1.09-.72-1.81v-1.54c-.12-.03-.24-.01-.33.06l-3.69,2.93s-.07.08-.09.12c-.28-.09-.56-.18-.84-.26,0-.03,0-.06,0-.09l-1.17-4.61c-.04-.16-.2-.27-.38-.27l-4.2-.02c-.17,0-.32.1-.37.25l-1.47,4.48s-.01.07-.01.1c-.35.08-.69.17-1.03.27-.01-.02-.02-.03-.04-.04l-3.45-3.27c-.12-.11-.31-.13-.46-.03l-3.56,2.23c-.15.09-.22.26-.18.41l1.15,4.57s.01.04.02.06c-.26.26-.5.53-.74.8-.03-.02-.06-.03-.09-.04l-4.66-.94c-.16-.03-.33.06-.41.22l-.27.56c.32.43.49.94.49,1.54v2.05c0,.58-.17,1.08-.48,1.53l1.89,1.81s.08.06.13.07c-.09.41-.16.82-.22,1.23-.01,0-.02,0-.03,0l-1.28.49v.83c0,.73-.24,1.33-.72,1.81l-1.04-1.01v-.95l-1.4.54c-.15.06-.25.23-.23.41l.47,4.17c.02.17.14.31.29.34l1.51.31.39-.38c.17.17.29.35.4.54l2.31.47c.06.01.11,0,.16,0,.16.44.35.87.55,1.29,0,0-.02.02-.02.03l-2.69,3.92c-.09.14-.08.33.04.46l2.75,3.17c.11.13.29.18.43.12l4.34-1.84s.01,0,.02-.01c.34.25.7.49,1.06.71l-.18,4.72c0,.16.11.32.28.37l4.02,1.21c.16.05.34,0,.43-.13l1.86-2.69c-.28.1-.58.16-.91.16h-2.73c-.71,0-1.31-.24-1.81-.72l1.06-1.01h4.25l.73.71.09-.13-.71-.69v-2.95c-1.94-.27-3.77-1.01-5.34-2.11l-.17.14c-.17-.18-.3-.38-.41-.58-2.11-1.68-3.68-4.08-4.3-6.92-1.44-6.58,2.73-13.08,9.31-14.53,6.58-1.44,13.08,2.73,14.53,9.31,1.44,6.58-2.73,13.08-9.31,14.53-.85.19-1.69.28-2.53.28v2.03c0,.48-.12.91-.33,1.28.34,0,.68,0,1.03-.01l2.26,3.97c.08.14.26.21.44.16l4.05-1.1c.17-.04.29-.18.29-.34l.23-4.71c0-.06-.01-.12-.04-.16.38-.23.75-.47,1.11-.73l4.29,2.03c.15.07.33.02.45-.12l2.69-3.22c.11-.13.13-.31.04-.45l-2.51-3.99s-.04-.05-.07-.08c.19-.39.37-.8.53-1.2l4.67-.57c.16-.02.29-.16.32-.34l.55-4.16c.02-.17-.06-.33-.2-.4Zm-27.81,12.09c0-.72.25-1.33.74-1.84l1.04.82v3.88l-1.06,1.01c-.48-.48-.72-1.09-.72-1.81v-2.05Z"/>
      <path class="cls-2" d="m99.67,113.86c-.08.15-.05.34.06.44l.23.22v-1.27l-.3.61Z"/>
      <path class="cls-2" d="m140.85,76.46l-5.65-4.38c-.07-.05-.14-.08-.22-.09.05-.51.08-1.03.09-1.56.06,0,.11-.02.16-.05l6.32-3.47c.22-.12.32-.39.26-.66l-1.57-6.17c-.06-.25-.27-.44-.51-.45l-7.13-.46s-.04,0-.06,0c-.25-.49-.51-.97-.79-1.44l3.68-6.03c.13-.21.09-.5-.1-.7l-4.43-4.58c-.18-.19-.45-.24-.67-.14l-6.42,3.15c-.08.04-.14.09-.18.15-.38-.23-.77-.45-1.16-.66,0-.04.01-.08.01-.13l-.24-7.21c0-.25-.2-.47-.47-.53l-5.93-1.33v1.72c0,.73-.24,1.33-.72,1.81l-1.04-1.01v-.91l-2.79,4.73s-.04.1-.05.14c-.54,0-1.08.03-1.61.07-.01-.03-.02-.05-.04-.08l-4.05-5.96c-.14-.21-.42-.29-.68-.19l-3.1,1.11v.29c0,.73-.24,1.33-.72,1.81l-1.04-1.01v-.46l-1.13.4c-.25.09-.41.31-.4.55l.22,7.15s0,.07.02.1c-.46.3-.92.62-1.36.95-.04-.03-.08-.06-.13-.08l-6.6-2.9c-.23-.1-.51-.02-.68.19l-2.74,3.47c-.02.67-.26,1.25-.73,1.73l-.39-.31-.09.11c-.16.2-.18.48-.05.68l.07.11.46-.36c.49.51.74,1.13.74,1.84v.3l2.71,4.05c.04.07.1.11.16.15-.26.57-.51,1.16-.73,1.75-.02,0-.03,0-.05,0l-7.13,1.08c-.25.04-.44.26-.47.53l-.66,6.33c-.03.26.1.5.32.6l6.54,2.89c.08.04.16.05.24.04.1.71.23,1.4.39,2.09-.01.01-.03.02-.04.03l-4.7,4.41c.11.29.16.6.16.94v1.77l2.24,4.11c.12.23.37.36.61.31l7.03-1.32s.02,0,.03,0c.43.48.87.95,1.34,1.39l-1.8,6.94c-.06.24.06.51.3.64l5.57,3.1c.23.13.5.1.68-.06l5.23-4.87s.03-.03.04-.05c.77.21,1.56.39,2.36.52l2.07,6.61c.07.24.32.4.59.38l6.36-.31c.26-.01.48-.18.54-.41l1.86-6.9c.02-.09.02-.17,0-.25.64-.21,1.26-.45,1.88-.72l5.7,4.4c.2.15.49.14.7-.03l.57-.44c.11-.21.25-.42.43-.6l.15.15.13-.1-.17-.16c.35-.34.76-.55,1.22-.65l2.71-2.1c.21-.16.29-.42.21-.65l-2.43-6.73c-.02-.05-.05-.09-.08-.13.41-.52.8-1.06,1.17-1.61l7.1.66c.25.02.49-.14.58-.4l2.17-5.99c.09-.25.02-.51-.17-.66Zm-27.71-29.27h2.73c.71,0,1.31.24,1.81.72l-1.04,1.01h-4.25l-1.06-1.01c.5-.48,1.11-.72,1.81-.72Zm-13.17,1.84l1.04-1.01c.48.48.72,1.09.72,1.81v2.05c0,.72-.25,1.33-.74,1.84l-1.03-.82v-3.88Zm15.86,38.83v.8c0,.73-.24,1.33-.72,1.81l-1.04-1.01v-1.26c-.86.12-1.74.19-2.64.19-3.66,0-7.07-1.07-9.94-2.9.16.34.25.71.25,1.12v2.05c0,.73-.24,1.33-.72,1.81l-1.04-1.01v-3.88l.76-.6c-4.72-3.35-7.81-8.86-7.81-15.09,0-5.89,2.76-11.14,7.05-14.53v-.58l1.03-.82c.13.13.24.28.33.42,2.66-1.74,5.79-2.81,9.16-2.98v-1.57c0-.73.24-1.33.72-1.81l1.06,1.01v2.37c1.55.07,3.05.33,4.47.76v-3.13l1.04-1.01c.48.48.72,1.09.72,1.81v2.05c0,.3-.05.58-.14.84,6.78,2.75,11.56,9.39,11.56,17.15,0,8.7-6.01,16-14.1,17.97Z"/>
      <path class="cls-3" d="m204.37,134.7v-18.19h8.55v-48.98h-8.55v-18.13h45.51v18.13h-8.55v48.98h8.55v18.19h-45.51Z"/>
      <path class="cls-3" d="m260.29,67.98v-18.58h74.04v18.58h-74.04Zm22.24,66.72v-62.28h29.57v62.28h-29.57Z"/>
      <path class="cls-4" d="m345.2,134.7V49.41h28.41v85.29h-28.41Zm32.91-25.58v-16.52h21.34v-26.16h-21.34v-17.03h32.46l17.1,17.03v25.58l-13.24,13.24,16.13,29.44h-30.34l-12.08-25.58h-10.03Z"/>
      <path class="cls-4" d="m526.96,134.7V40.41h28.41v94.29h-28.41Zm32.91,0v-15.94h12.73v-35.29h-12.73v-8.61l8.36-8.42h15.55l17.1,17.03v34.19l-17.1,17.03h-23.91Z"/>
      <path class="cls-4" d="m721.07,134.7l-17.1-17.03v-34.19h-5.66v-17.03h5.66v-7.39l28.41-9.64v68.26h18.77v17.03h-30.08Zm15.81-51.23v-17.03h15.3v17.03h-15.3Z"/>
      <rect class="cls-4" x="763.36" y="66.44" width="28.47" height="68.26"/>
      <path class="cls-4" d="m821.46,134.7l-17.03-17.03v-34.19l17.03-17.03h11.38v68.26h-11.38Zm28.47-41.01v-10.22h-12.6v-17.03h23.97l17.03,17.03v10.22h-28.41Zm-12.6,41.01v-15.94h12.6v-8.55h28.41v7.46l-17.03,17.03h-23.97Z"/>
      <path class="cls-4" d="m899.81,134.7l-11.83-14.08v-5.46h28.47v7.01h12.6v12.53h-29.24Zm33.74,0v-25.77h-30.72l-14.78-14.2v-12.98l15.36-15.3h11.38v24.1h32.39l14.78,14.91v13.3l-15.88,15.94h-12.53Zm0-50.39v-5.33h-14.27v-12.53h30.21l10.16,10.16v7.71h-26.1Z"/>
      <g>
        <path class="cls-3" d="m231.27,164.89h-26.94v-19.43h5.01v14.71h5.95v-14.71h5.01v14.71h5.95v-14.71h5.01v19.43Z"/>
        <path class="cls-3" d="m248.19,154.28v.57l7.69,8.94v1.11h-5.57l-6.72-8.07h-1.92v8.07h-5.01v-19.43h5.01v7.17h1.89l6.16-7.17h5.19v1.11l-6.72,7.71Z"/>
        <path class="cls-3" d="m258.03,155.06c0-6.22,4.48-10.16,10.58-10.16s10.58,3.95,10.58,10.16h-5.1c0-3.41-2.18-5.44-5.48-5.44s-5.48,2.03-5.48,5.44,2.18,5.47,5.48,5.47,5.48-2.03,5.48-5.47h5.1c0,6.22-4.51,10.19-10.58,10.19s-10.58-3.98-10.58-10.19Z"/>
        <path class="cls-3" d="m284.36,145.46h15.89v19.43h-5.01v-14.71h-6.04l-.32,8.4c-.15,3.53-1.56,6.52-4.8,6.52-.91,0-1.71-.06-2.71-.21v-4.96c.21.03.74.06.97.06.88,0,1.47-.57,1.53-1.73l.5-12.79Z"/>
        <path class="cls-3" d="m311.13,145.46h5.95l7.84,18.32v1.11h-5.19l-1.27-3.17h-8.73l-1.27,3.17h-5.04v-1.11l7.69-18.32Zm.38,11.84h5.19l-2.39-5.98h-.44l-2.36,5.98Z"/>
        <path class="cls-3" d="m340.87,158.71v6.19h-5.01v-19.43h10.38c3.95,0,6.87,2.57,6.87,6.61s-2.92,6.64-6.87,6.64h-5.36Zm0-8.52v3.8h5.36c1.12,0,1.86-.69,1.86-1.91s-.74-1.88-1.86-1.88h-5.36Z"/>
        <path class="cls-3" d="m355.7,155.06c0-6.22,4.48-10.16,10.58-10.16s10.58,3.95,10.58,10.16h-5.1c0-3.41-2.18-5.44-5.48-5.44s-5.48,2.03-5.48,5.44,2.18,5.47,5.48,5.47,5.48-2.03,5.48-5.47h5.1c0,6.22-4.51,10.19-10.58,10.19s-10.58-3.98-10.58-10.19Z"/>
        <path class="cls-3" d="m381.08,145.46h16.07v4.42h-11.05v2.18h5.36c3.95,0,6.87,2.48,6.87,6.4s-2.92,6.43-6.87,6.43h-10.38v-19.43Zm5.01,11.33v3.38h5.36c1.12,0,1.86-.57,1.86-1.7s-.74-1.67-1.86-1.67h-5.36Z"/>
        <path class="cls-3" d="m401.51,155.06c0-6.22,4.48-10.16,10.58-10.16s10.58,3.95,10.58,10.16h-5.1c0-3.41-2.18-5.44-5.48-5.44s-5.48,2.03-5.48,5.44,2.18,5.47,5.48,5.47,5.48-2.03,5.48-5.47h5.1c0,6.22-4.51,10.19-10.58,10.19s-10.58-3.98-10.58-10.19Z"/>
        <path class="cls-3" d="m424.83,145.46h17.98v4.42h-6.49v15.01h-5.01v-15.01h-6.49v-4.42Z"/>
        <path class="cls-3" d="m444.96,155.06c0-6.22,4.48-10.16,10.58-10.16s10.58,3.95,10.58,10.16h-5.1c0-3.41-2.18-5.44-5.48-5.44s-5.48,2.03-5.48,5.44,2.18,5.47,5.48,5.47,5.48-2.03,5.48-5.47h5.1c0,6.22-4.51,10.19-10.58,10.19s-10.58-3.98-10.58-10.19Z"/>
        <path class="cls-3" d="m468.28,145.46h17.98v4.42h-6.49v15.01h-5.01v-15.01h-6.49v-4.42Z"/>
        <path class="cls-3" d="m489.59,145.46h15.77v4.42h-10.76v2.69h10.23v4.42h-10.23v3.47h10.82v4.42h-15.83v-19.43Z"/>
        <path class="cls-3" d="m518.66,158.91h-.15l-4.54,5.98h-5.16v-1.11l6.69-8.67v-.3l-6.54-8.25v-1.11h5.31l4.27,5.74h.21l4.39-5.74h5.16v1.11l-6.54,8.49v.3l6.69,8.43v1.11h-5.31l-4.48-5.98Zm0-7.56v-.03h-.03l.03.03Z"/>
        <path class="cls-3" d="m545.51,157.27h-8.31v7.62h-5.01v-19.43h5.01v7.08h8.31v-7.08h5.01v19.43h-5.01v-7.62Z"/>
        <path class="cls-3" d="m556.01,145.46h5.01v19.43h-5.01v-19.43Z"/>
        <path class="cls-3" d="m578.03,154.28v.57l7.69,8.94v1.11h-5.57l-6.72-8.07h-1.92v8.07h-5.01v-19.43h5.01v7.17h1.89l6.16-7.17h5.19v1.11l-6.72,7.71Z"/>
        <path class="cls-3" d="m595.01,164.89h-5.95v-19.43h5.01v13.12h.21l7.72-13.12h5.95v19.43h-5.01v-13.12h-.24l-7.69,13.12Z"/>
        <path class="cls-3" d="m619.03,145.46h17.98v4.42h-6.49v15.01h-5.01v-15.01h-6.49v-4.42Z"/>
        <path class="cls-3" d="m645.83,145.46h5.95l7.84,18.32v1.11h-5.19l-1.27-3.17h-8.73l-1.27,3.17h-5.04v-1.11l7.69-18.32Zm.38,11.84h5.19l-2.39-5.98h-.44l-2.36,5.98Z"/>
        <path class="cls-3" d="m683.15,150.19h-7.58v14.71h-5.01v-19.43h17.6v19.43h-5.01v-14.71Z"/>
        <path class="cls-3" d="m698.56,158.71v6.19h-5.01v-19.43h10.38c3.95,0,6.87,2.57,6.87,6.61s-2.92,6.64-6.87,6.64h-5.37Zm0-8.52v3.8h5.37c1.12,0,1.86-.69,1.86-1.91s-.74-1.88-1.86-1.88h-5.37Z"/>
        <path class="cls-3" d="m713.39,155.06c0-6.22,4.48-10.16,10.58-10.16s10.58,3.95,10.58,10.16h-5.1c0-3.41-2.18-5.44-5.48-5.44s-5.48,2.03-5.48,5.44,2.18,5.47,5.48,5.47,5.48-2.03,5.48-5.47h5.1c0,6.22-4.51,10.19-10.58,10.19s-10.58-3.98-10.58-10.19Z"/>
        <path class="cls-3" d="m738.77,145.46h14.74v4.42h-9.73v15.01h-5.01v-19.43Z"/>
        <path class="cls-3" d="m762,158.71v6.19h-5.01v-19.43h10.38c3.95,0,6.87,2.57,6.87,6.61s-2.92,6.64-6.87,6.64h-5.37Zm0-8.52v3.8h5.37c1.12,0,1.86-.69,1.86-1.91s-.74-1.88-1.86-1.88h-5.37Z"/>
        <path class="cls-3" d="m783.49,145.46h5.95l7.84,18.32v1.11h-5.19l-1.27-3.17h-8.73l-1.27,3.17h-5.04v-1.11l7.69-18.32Zm.38,11.84h5.19l-2.39-5.98h-.44l-2.36,5.98Z"/>
        <path class="cls-3" d="m820.61,153.17h-.41l-5.07,11.72h-4.07l-5.16-11.72h-.41v11.72h-5.01v-19.43h6.99l5.36,12.26h.5l5.39-12.26h6.9v19.43h-5.01v-11.72Z"/>
        <path class="cls-3" d="m834.29,145.46l5.34,9.21h.41l4.54-9.21h4.63v1.11l-6.78,13.63c-1.8,3.59-3.6,5.29-7.16,5.29-.68,0-1.41-.06-2.24-.18v-4.66c.53.06,1,.15,1.42.15,1.33,0,2.18-.33,2.8-.96l-8.14-13.27v-1.11h5.19Z"/>
        <path class="cls-3" d="m852.27,145.46h10.73v.03c3.95,0,6.9,2.06,6.9,5.41,0,1.61-.8,2.93-2.06,3.89v.3c1.47.99,2.45,2.45,2.45,4.22,0,3.44-2.98,5.59-6.93,5.59h-11.08v-19.43Zm5.01,4.42v2.99h5.72c1.12,0,1.86-.57,1.86-1.52s-.74-1.46-1.86-1.46h-5.72Zm0,7.41v3.17h6.07c1.12,0,1.86-.6,1.86-1.61s-.74-1.55-1.86-1.55h-6.07Z"/>
        <path class="cls-3" d="m880.33,145.46h5.95l7.84,18.32v1.11h-5.19l-1.27-3.17h-8.73l-1.27,3.17h-5.04v-1.11l7.69-18.32Zm.38,11.84h5.19l-2.39-5.98h-.44l-2.36,5.98Z"/>
        <path class="cls-3" d="m910.63,157.27h-8.31v7.62h-5.01v-19.43h5.01v7.08h8.31v-7.08h5.01v19.43h-5.01v-7.62Z"/>
        <path class="cls-3" d="m934.36,157.27h-8.31v7.62h-5.01v-19.43h5.01v7.08h8.31v-7.08h5.01v19.43h-5.01v-7.62Z"/>
        <path class="cls-3" d="m961.9,164.89h-5.01v-6.19h-3.83l-4.04,6.19h-5.36v-1.11l4.13-5.89c-2.56-.87-4.24-3.02-4.24-6.01,0-3.92,2.92-6.43,6.87-6.43h11.5v19.43Zm-11.35-14.71c-1.12,0-1.86.69-1.86,1.91s.74,1.88,1.86,1.88h6.34v-3.8h-6.34Z"/>
      </g>
      <rect class="cls-4" x="777.2" y="29.42" width=".8" height="3.77"/>
      <path class="cls-4" d="m786.03,34.24h-16.86c-4.65,0-8.42,4.36-8.42,9.73v5.48c0,5.38,3.77,9.73,8.42,9.73h16.86c4.65,0,8.42-4.36,8.42-9.73v-5.48c0-5.38-3.77-9.73-8.42-9.73Zm3.01,17.16c0,2.12-1.72,3.84-3.84,3.84h-15.19c-2.12,0-3.84-1.72-3.84-3.84v-9.38c0-2.12,1.72-3.84,3.84-3.84h15.19c2.12,0,3.84,1.72,3.84,3.84v9.38Z"/>
      <circle class="cls-4" cx="771.97" cy="43.7" r="3.02"/>
      <circle class="cls-4" cx="783.34" cy="43.7" r="3.02"/>
      <circle class="cls-4" cx="777.6" cy="28.62" r="2.38"/>
      <path class="cls-4" d="m795.32,43.23v7.33s6.63-3.9,0-7.33Z"/>
      <path class="cls-4" d="m759.86,43.23v7.33s-6.63-3.9,0-7.33Z"/>
      <path class="cls-1" d="m187.25,81.85l-4.83-19.01c-.2-.78-.84-1.35-1.57-1.39l-21.98-1.41c-.06,0-.12,0-.19.01-.77-1.51-1.58-2.98-2.45-4.43l11.32-18.57c.4-.65.27-1.54-.32-2.15l-13.65-14.09c-.56-.58-1.4-.75-2.06-.43l-19.77,9.71c-.23.11-.42.28-.56.47-1.17-.71-2.37-1.38-3.59-2.02.03-.13.05-.26.04-.4l-.75-22.2c-.03-.77-.62-1.44-1.44-1.62L106.33.05c-.78-.18-1.58.14-1.95.77l-11.19,18.97c-.08.14-.13.29-.17.44-1.67.02-3.33.09-4.97.22-.04-.08-.07-.16-.12-.24L75.45,1.85c-.43-.63-1.29-.88-2.09-.6l-18.47,6.6c-.76.27-1.26.96-1.24,1.7l.67,22.01c0,.11.03.21.05.31-1.43.93-2.83,1.9-4.18,2.92-.11-.1-.24-.19-.39-.26l-20.33-8.93c-.7-.31-1.57-.06-2.09.6l-12.15,15.4c-.5.63-.56,1.48-.15,2.1l12.25,18.3c.13.2.31.35.5.46-.81,1.76-1.56,3.56-2.24,5.4-.05,0-.1,0-.16,0l-21.96,3.33c-.76.12-1.36.79-1.44,1.62L.01,92.32c-.08.8.32,1.55,1,1.85l20.14,8.9c.25.11.5.14.74.12.31,2.17.71,4.32,1.21,6.42-.05.03-.1.06-.14.1l-16.2,15.19c-.56.52-.67,1.42-.27,2.15l9.39,17.22c.38.71,1.15,1.1,1.87.96l21.64-4.08s.06-.02.09-.03c1.32,1.48,2.69,2.92,4.13,4.29l-5.54,21.38c-.19.74.19,1.56.92,1.96l17.14,9.54c.7.39,1.55.31,2.09-.19l16.11-15.01s.08-.1.12-.14c2.38.66,4.81,1.2,7.28,1.61l6.37,20.36c.23.73.98,1.22,1.82,1.18l19.59-.97c.8-.04,1.49-.55,1.68-1.26l5.74-21.26c.07-.27.07-.54,0-.78,1.97-.66,3.89-1.4,5.78-2.22l17.54,13.55c.61.47,1.5.44,2.17-.08l15.51-12.01c.64-.49.9-1.31.65-2l-7.47-20.71c-.06-.16-.14-.29-.24-.42,1.27-1.6,2.47-3.26,3.6-4.97l21.87,2.04c.76.07,1.5-.44,1.79-1.23l6.67-18.45c.27-.76.06-1.58-.52-2.04l-17.4-13.5c-.2-.16-.43-.25-.66-.29.14-1.58.24-3.18.28-4.79.17-.03.34-.07.5-.16l19.46-10.7c.67-.37,1-1.21.79-2.02Zm-15.83,2.38c-2.92,3.55-7.12,5.53-11.12,7.55-.36.18-.73.37-1.09.56.06,2.54-.06,5.03-.36,7.47.75,1.25,1.52,2.5,2.31,3.73.57.88,1.18,1.74,1.78,2.6.44.46.83.96,1.27,1.42.36.37.73.74,1.11,1.09.17.16.9.67,1.13.86.04.02.07.04.09.06.58.36,1.18.67,1.78.98,4.87,2.49,6.48,8.9,4.47,13.65-2.31,5.46-7.42,7.09-12.9,6.33-3.44-.48-6.83-1.22-10.24-1.88-.55-.11-1.1-.2-1.65-.3-1.11,1.7-2.33,3.34-3.66,4.91,1.84,3.77,3.15,7.75,4.75,11.63,1.87,4.55-3.32,2.88-4.57,7.8-1.36,5.34-.62,14.31-5.73,13.14-4.3-.98-7.01-5.14-7.15-9.35-3.91-.48-6.94-3.27-8.11-6.89-.04.02-.08.03-.11.05-.46,2.17-1.69,4.11-3.36,5.58-.05.66-.71-.85-1.17-.4l-.22,1.44s-.1.06-.15.09l-.76-.51c-.53.51-.94-.35-1.69-.35l-.98,2.28c-.7.16-1.42.24-2.14.24-.52,0-1.03-.05-1.52-.12.04,2.17.09,4.34.16,6.51.23,6.65-1.52,4.89-7.17,8.85-4.51,3.16-10.7,8.29-13.39,4.11-1.23-1.91-1.57-4-1.26-6.01-.14-.12-.28-.25-.41-.38-1.78-1.78-2.88-4.43-2.88-6.96v-5.52c0-.64.07-1.26.18-1.86-1.21-.13-2.42-.28-3.61-.47-.12.26-.28.5-.5.72l-1.02-.99c-3.38-.63-6.68-1.53-9.91-2.68-1.24,1.84-2.49,3.68-3.64,5.58-.8,1.31-1.55,2.65-2.22,4.03-.26.53-.98,2.67-.22.42-.24.71-.5,1.42-.72,2.14-1.62,5.27-4.48,3.95-9.81,2.73-5.07-1.16-10.67-3.04-9.16-7.96,1.89-6.14,5.18-11.45,8.7-16.73l-7.24-5.6c-1.9-1.91-3.65-3.91-5.27-5.98-3.19,1.58-6.41,3.11-9.53,4.84-4.81,2.68-10.52,1.03-13.46-3.53-2.84-4.4-.97-10.96,3.53-13.46,3.21-1.78,6.52-3.35,9.8-4.98-.72-1.89-1.36-3.83-1.92-5.82-.53-3.94-1.06-7.88-1.59-11.83-5.47-.47-11.44-1.29-15.92-4.06-4.68-2.89-6.07-8.65-3.53-13.46,2.44-4.62,9.07-6.23,13.46-3.53.13.08.23.15.31.2,0,0,0,0,0,0,.5.12,1,.26,1.51.36,1.27.26,2.56.43,3.84.63.11.02.57.09.98.15.95-3.85,2.36-7.56,4.24-11.15.73-2.24,1.61-4.4,2.62-6.48-1.47-.76-2.86-1.79-4.22-3.19-1-1.04-1.72-2.22-2.19-3.46-1.97-1.65-3.77-3.51-5.23-5.84-2.93-4.66,1.9-8.27,6.26-11.08,4.56-2.94,8-3.21,10.73,1.15.04.07.07.12.1.17.42.37.86.78,1.25,1.18,0,0,.01.01.02.02.38.26.75.52,1.14.78,1.74,1.16,3.53,2.24,5.23,3.46,2.83-2.71,5.88-5.03,9.16-6.97.05-1.77.33-3.52.59-5.29.08-.57.23-1.17.31-1.76,0-.47.01-1.1.02-1.25.02-3.11-.8-6.15-.53-9.27.43-5.01,3.87-5.13,8.75-6.71,4.57-1.48,9.28-2.83,11.63,1.19,1.48,2.54,2.34,5.39,4,7.82.07.1.4.52.62.8.21.22.43.47.49.53.9,1,1.85,1.95,2.81,2.9.36.36.71.71,1.07,1.06,1.73-.11,3.49-.13,5.27-.06,1.04,0,2.06.04,3.09.09.66-.57,1.31-1.16,1.92-1.79.2-.2.75-.94.72-.85.15-.24.28-.44.29-.46.08-.14.37-.56.59-.93.03-.1.07-.24.12-.41.81-2.49,1.49-5.03,2.33-7.51,1.94-5.81,6.45-3.68,12.49-2.31,6.19,1.41,9.51,2.49,8.6,8.12-.47,2.9-1.23,5.74-1.84,8.61-.1.48-.28,1.03-.38,1.57,0,.12,0,.31-.01.6-.03.5-.04,1-.04,1.5,1.76.83,3.49,1.73,5.21,2.72.06.05.12.09.18.14.4.11.79.22,1.19.33.19.05.34.1.45.13.16.02.32.04.49.06,1.05.13,2.1.25,3.15.32.04,0,.08,0,.11,0,.56-.63,1.07-1.14,1.25-1.34,1.24-1.32,2.81-2.56,4.41-3.39.78-.41,1.63-.72,2.44-1.06.84-.35,3.1-1.37,1.03-.43,4.12-1.89,8.44-2.01,12.14.85,3.56,2.75,4.93,7.15,3.92,11.49-.71,3.05-2.08,5.96-3.51,8.74-.52,1.01-1.03,2.03-1.55,3.04-.03.06-.06.11-.08.16-.06.26-.11.54-.16.75.03.5,0,1.04,0,1.52,0,.95-.07,1.89-.15,2.83-.06.76-.13,1.52-.19,2.28.59,1.15,1.15,2.31,1.68,3.49.56.12,1.12.23,1.67.37.28,0,.55.02.83.03,3.61.14,6.97.13,10.57.75,3.65.62,6.7,4.24,7.64,7.64,1.11,4.05-.27,7.55-2.81,10.64Z"/>
      <g>
        <path class="cls-4" d="m117.77,131.36c.49.51.74,1.13.74,1.84v.02c.83,0,1.68-.1,2.53-.28,6.58-1.44,10.75-7.94,9.31-14.53-1.44-6.58-7.94-10.75-14.53-9.31-6.58,1.44-10.75,7.94-9.31,14.53.62,2.84,2.19,5.24,4.3,6.92-.21-.38-.32-.8-.32-1.27v-2.05c0-.73.24-1.33.72-1.81l1.06,1.01v3.88l-.87.68c1.57,1.11,3.4,1.84,5.34,2.11v-.93l1.03-.82Zm.74-4.12v2.05c0,.72-.25,1.33-.74,1.85l-1.03-.82v-3.88l1.04-1.01c.48.48.72,1.09.72,1.81Zm-4.44-15.86l1.04-1.01c.48.48.72,1.09.72,1.81v2.05c0,.72-.25,1.33-.74,1.84l-1.03-.82v-3.88Zm0,5.74l1.03-.82c.49.51.74,1.13.74,1.84v2.05c0,.73-.24,1.33-.72,1.81l-1.04-1.01v-3.88Zm-1.68,9.21l-1.06-1.01c.5-.48,1.11-.72,1.81-.72h2.73c.71,0,1.31.24,1.81.72l-1.04,1.01h-4.25Z"/>
        <path class="cls-4" d="m118.37,52.73c-.12.37-.31.7-.6,1l-1.03-.82v-.75c-1.43-.43-2.93-.69-4.47-.76v1.51l-1.04.82c-.49-.51-.74-1.13-.74-1.84v-.48c-3.37.17-6.5,1.24-9.16,2.98.27.42.4.89.4,1.42v2.05c0,.73-.24,1.33-.72,1.81l-1.04-1.01v-3.3c-4.29,3.39-7.05,8.63-7.05,14.53,0,6.23,3.08,11.74,7.81,15.09l.27-.21c.21.22.37.47.49.73,2.87,1.83,6.28,2.9,9.94,2.9.9,0,1.78-.07,2.64-.19v-2.62l1.03-.82c.49.51.74,1.13.74,1.84v1.25c8.09-1.98,14.1-9.27,14.1-17.97,0-7.76-4.78-14.41-11.56-17.15Zm-19.66,10.2h2.73c.71,0,1.31.24,1.81.72l-1.04,1.01h-4.25l-1.06-1.01c.5-.48,1.11-.72,1.81-.72Zm-2.65,2.65c0-.73.24-1.33.72-1.81l1.06,1.01v3.88l-1.04.82c-.49-.51-.74-1.13-.74-1.84v-2.05Zm0,8.02v-2.05c0-.72.25-1.33.74-1.84l1.04.82v3.88l-1.06,1.01c-.48-.48-.72-1.09-.72-1.81Zm5.67,9.1c0,.72-.25,1.33-.74,1.84l-1.03-.82v-3.88l1.04-1.01c.48.48.72,1.09.72,1.81v2.05Zm-.29-6.45h-2.73c-.71,0-1.31-.24-1.81-.72l1.06-1.01h4.25l1.04,1.01c-.5.48-1.11.72-1.81.72Zm2.65-2.65c0,.73-.24,1.33-.72,1.81l-1.04-1.01v-3.88l1.03-.82c.49.51.74,1.13.74,1.84v2.05Zm0-5.97c0,.72-.25,1.33-.74,1.84l-1.03-.82v-3.88l1.04-1.01c.48.48.72,1.09.72,1.81v2.05Zm6.4-9.78v-2.05c0-.72.25-1.33.74-1.84l1.04.82v3.88l-1.06,1.01c-.48-.48-.72-1.09-.72-1.81Zm5.34,24.84c0,.72-.25,1.33-.74,1.84l-1.03-.82v-3.88l1.04-1.01c.48.48.72,1.09.72,1.81v2.05Zm.06-9.1c0,.73-.24,1.33-.72,1.81l-1.04-1.01v-3.88l1.03-.82c.49.51.74,1.13.74,1.84v2.05Zm0-5.97c0,.72-.25,1.33-.74,1.84l-1.03-.82v-3.88l1.04-1.01c.48.48.72,1.09.72,1.81v2.05Zm-.03-7.13h-2.73c-.71,0-1.31-.24-1.81-.72l1.06-1.01h4.25l1.04,1.01c-.5.48-1.11.72-1.81.72Zm2.65-2.65c0,.73-.24,1.33-.72,1.81l-1.04-1.01v-3.88l1.03-.82c.49.51.74,1.13.74,1.84v2.05Z"/>
        <path class="cls-4" d="m85.41,103.06c-1.03-2.27-2.57-4.25-4.47-5.81v1.72l-1.04.82c-.49-.51-.74-1.13-.74-1.84v-1.96c-1.83-1.12-3.89-1.89-6.1-2.21.08.06.16.12.23.19l-1.04,1.01h-4.25l-.97-.93c-.06.01-.12.03-.19.04l1.05,1v3.88l-1.04.82c-.49-.51-.74-1.13-.74-1.84v-2.05c0-.72.24-1.32.71-1.8-7.01,1.75-12.2,8.09-12.2,15.64s5,13.65,11.82,15.54c.49-.45,1.08-.68,1.76-.68h2.73c.71,0,1.31.24,1.81.72l-.48.47c.08,0,.17-.02.25-.02l.34-.33c.08.08.15.17.21.26,3.57-.51,6.75-2.19,9.17-4.64l-.05-.05v-3.88l1.03-.82c.49.51.74,1.13.74,1.84v.85c1.84-2.62,2.93-5.81,2.93-9.26,0-1.43-.19-2.82-.54-4.15l-.9-.88v-1.65Zm-19.31.84v-2.05c0-.72.25-1.33.74-1.84l1.04.82v3.88l-1.06,1.01c-.48-.48-.72-1.09-.72-1.81Zm4.77,16.29c0,.73-.24,1.33-.72,1.81l-1.04-1.01v-3.88l1.03-.82c.49.51.74,1.13.74,1.84v2.05Zm0-5.97c0,.72-.25,1.33-.74,1.84l-1.03-.82v-3.88l1.04-1.01c.48.48.72,1.09.72,1.81v2.05Zm.6-7.67h-2.73c-.71,0-1.31-.24-1.81-.72l1.06-1.01h4.25l1.04,1.01c-.5.48-1.11.72-1.81.72Zm2.65-2.65c0,.73-.24,1.33-.72,1.81l-1.04-1.01v-3.88l1.03-.82c.49.51.74,1.13.74,1.84v2.05Zm0-5.97c0,.72-.25,1.33-.74,1.84l-1.03-.82v-3.88l1.04-1.01c.48.48.72,1.09.72,1.81v2.05Zm5.04,5.97v-2.05c0-.72.25-1.33.74-1.84l1.04.82v3.88l-1.06,1.01c-.48-.48-.72-1.09-.72-1.81Zm4.77,10.32c0,.72-.25,1.33-.74,1.84l-1.03-.82v-3.88l1.04-1.01c.48.48.72,1.09.72,1.81v2.05Zm2.41-8.4c-.5.48-1.11.72-1.81.72h-2.73c-.71,0-1.31-.24-1.81-.72l1.06-1.01h4.25l1.04,1.01Z"/>
        <path class="cls-4" d="m181.67,82.52l-4.54-17.88c-.19-.73-.79-1.27-1.48-1.31l-20.67-1.33c-.06,0-.12,0-.18.01-.72-1.42-1.49-2.81-2.3-4.16l10.65-17.47c.38-.62.25-1.45-.3-2.02l-12.83-13.25c-.53-.54-1.31-.71-1.93-.4l-18.59,9.13c-.22.11-.39.26-.52.44-1.1-.66-2.23-1.3-3.37-1.9.03-.12.04-.25.04-.38l-.71-20.87c-.02-.72-.59-1.35-1.36-1.52l-18-4.03c-.74-.16-1.49.13-1.84.73l-10.52,17.84c-.08.13-.13.28-.16.42-1.57.02-3.13.08-4.67.21-.03-.08-.07-.15-.11-.22l-11.74-17.27c-.41-.6-1.22-.83-1.96-.56l-17.37,6.21c-.71.25-1.19.9-1.17,1.6l.63,20.7c0,.1.02.2.05.29-1.34.87-2.66,1.79-3.93,2.75-.11-.09-.23-.18-.37-.24l-19.12-8.4c-.66-.29-1.47-.06-1.96.56l-11.43,14.48c-.47.59-.53,1.4-.14,1.97l11.52,17.21c.13.19.29.33.47.43-.77,1.66-1.47,3.35-2.11,5.08-.05,0-.1,0-.15,0l-20.65,3.13c-.71.11-1.27.74-1.36,1.53l-1.9,18.35c-.08.75.3,1.46.94,1.74l18.94,8.37c.23.1.47.14.7.11.29,2.04.67,4.06,1.13,6.04-.04.03-.09.06-.13.09l-15.24,14.28c-.53.49-.63,1.33-.25,2.03l8.83,16.2c.36.66,1.08,1.03,1.76.9l20.35-3.84s.06-.02.09-.03c1.24,1.4,2.53,2.74,3.88,4.03l-5.21,20.11c-.18.7.18,1.46.87,1.85l16.12,8.97c.66.37,1.46.3,1.97-.18l15.15-14.12s.07-.09.11-.14c2.24.62,4.52,1.12,6.85,1.51l5.99,19.15c.22.69.93,1.15,1.71,1.11l18.42-.91c.75-.04,1.4-.52,1.58-1.19l5.39-19.99c.07-.25.06-.5,0-.74,1.85-.62,3.66-1.32,5.44-2.09l16.5,12.75c.57.44,1.42.41,2.04-.07l14.58-11.29c.6-.46.85-1.23.61-1.88l-7.03-19.48c-.05-.15-.13-.27-.22-.39,1.19-1.51,2.32-3.07,3.39-4.67l20.56,1.92c.72.07,1.42-.41,1.68-1.15l6.27-17.35c.26-.71.06-1.49-.49-1.91l-16.36-12.69c-.19-.15-.41-.24-.62-.27.13-1.49.23-2.99.26-4.51.16-.02.32-.07.47-.15l18.3-10.06c.63-.35.94-1.13.75-1.9Zm-161.64-5.1h2.73c.71,0,1.31.24,1.81.72l-1.04,1.01h-4.25l-1.06-1.01c.5-.48,1.11-.72,1.81-.72Zm-2.65,2.65c0-.73.24-1.33.72-1.81l1.06,1.01v3.88l-1.04.82c-.49-.51-.74-1.13-.74-1.85v-2.05Zm0,8.02v-2.05c0-.72.25-1.33.74-1.84l1.04.82v3.88l-1.06,1.01c-.48-.48-.72-1.09-.72-1.81Zm5.37,2.65h-2.73c-.71,0-1.31-.24-1.81-.72l1.06-1.01h4.25l1.04,1.01c-.5.48-1.11.72-1.81.72Zm2.65-2.65c0,.73-.24,1.33-.72,1.81l-1.04-1.01v-3.88l1.03-.82c.49.51.74,1.13.74,1.84v2.05Zm0-5.97c0,.72-.25,1.33-.74,1.85l-1.03-.82v-3.88l1.04-1.01c.48.48.72,1.09.72,1.81v2.05Zm4.64,47.77c0,.73-.24,1.33-.72,1.81l-1.04-1.01v-3.88l1.03-.82c.49.51.74,1.13.74,1.84v2.05Zm0-5.97c0,.72-.25,1.33-.74,1.85l-1.03-.82v-3.88l1.04-1.01c.48.48.72,1.09.72,1.81v2.05Zm114.11-89.04h2.73c.71,0,1.31.24,1.81.72l-1.04,1.01h-4.25l-1.06-1.01c.5-.48,1.11-.72,1.81-.72Zm-2.65,2.65c0-.73.24-1.33.72-1.81l1.06,1.01v3.88l-1.04.82c-.49-.51-.74-1.13-.74-1.84v-2.05Zm0,5.97c0-.72.25-1.33.74-1.84l1.04.82v3.88l-1.06,1.01c-.48-.48-.72-1.09-.72-1.81v-2.05Zm4.73,25.29c.56.58.84,1.28.84,2.1v2.34c0,.83-.27,1.51-.82,2.06l-1.19-1.15v-4.42l1.17-.93Zm-1.17-1.19v-4.42l1.19-1.15c.55.55.82,1.23.82,2.06v2.34c0,.82-.28,1.52-.84,2.1l-1.17-.93Zm.71,13.03v2.05c0,.72-.25,1.33-.74,1.84l-1.03-.82v-3.88l1.04-1.01c.48.48.72,1.09.72,1.81Zm-.74,4.12c.49.51.74,1.13.74,1.84v2.05c0,.73-.24,1.33-.72,1.81l-1.04-1.01v-3.88l1.03-.82Zm.91,9.24c.71,0,1.31.24,1.81.72l-1.04,1.01h-4.25l-1.06-1.01c.5-.48,1.11-.72,1.81-.72h2.73Zm-3.59,1.84v3.88l-1.04.82c-.49-.51-.74-1.13-.74-1.84v-2.05c0-.73.24-1.33.72-1.81l1.06,1.01Zm-28.3-63.19l1.04-1.01c.48.48.72,1.09.72,1.81v2.05c0,.72-.25,1.33-.74,1.84l-1.03-.82v-3.88Zm-3.74-16.23l1.04-1.01c.48.48.72,1.09.72,1.81v2.05c0,.72-.25,1.33-.74,1.84l-1.03-.82v-3.88Zm0,5.74l1.03-.82c.49.51.74,1.13.74,1.84v2.05c0,.73-.24,1.33-.72,1.81l-1.04-1.01v-3.88Zm-10.36,10.48l1.04-1.01c.48.48.72,1.09.72,1.81v2.05c0,.72-.25,1.33-.74,1.84l-1.03-.82v-3.88Zm-12.79,1.58v2.05c0,.72-.25,1.33-.74,1.84l-1.03-.82v-3.88l1.04-1.01c.48.48.72,1.09.72,1.81Zm-6.13,14.34l-1.06-1.01c.5-.48,1.11-.72,1.81-.72h2.73c.71,0,1.31.24,1.81.72l-1.04,1.01h-4.25Zm5.29,10.86c-.5.48-1.11.72-1.81.72h-2.73c-.71,0-1.31-.24-1.81-.72l1.06-1.01h4.25l1.04,1.01Zm-1.81-14.53h-2.73c-.71,0-1.31-.24-1.81-.72l1.06-1.01h4.25l1.04,1.01c-.5.48-1.11.72-1.81.72Zm.88-1.84v-3.88l1.03-.82c.49.51.74,1.13.74,1.84v2.05c0,.73-.24,1.33-.72,1.81l-1.04-1.01Zm-3.61-11.47h2.73c.71,0,1.31.24,1.81.72l-1.04,1.01h-4.25l-1.06-1.01c.5-.48,1.11-.72,1.81-.72Zm-2.65,2.65c0-.73.24-1.33.72-1.81l1.06,1.01v3.88l-1.04.82c-.49-.51-.74-1.13-.74-1.84v-2.05Zm0,5.97c0-.72.25-1.33.74-1.84l1.04.82v3.88l-1.06,1.01c-.48-.48-.72-1.09-.72-1.81v-2.05Zm0,9.28c0-.73.24-1.33.72-1.81l1.06,1.01v3.88l-1.04.82c-.49-.51-.74-1.13-.74-1.84v-2.05Zm0,5.97c0-.72.25-1.33.74-1.84l1.04.82v3.88l-1.06,1.01c-.48-.48-.72-1.09-.72-1.81v-2.05Zm-4.19-37.03v2.05c0,.72-.25,1.33-.74,1.84l-1.03-.82v-3.88l1.04-1.01c.48.48.72,1.09.72,1.81Zm-4.82,57l-1.04-1.01v-3.88l1.03-.82c.49.51.74,1.13.74,1.84v2.05c0,.73-.24,1.33-.72,1.81Zm.72,5.23v2.05c0,.72-.25,1.33-.74,1.84l-1.03-.82v-3.88l1.04-1.01c.48.48.72,1.09.72,1.81Zm-.74-11.16l-1.03-.82v-3.88l1.04-1.01c.48.48.72,1.09.72,1.81v2.05c0,.72-.25,1.33-.74,1.84Zm-1.39-9.33c-.71,0-1.31-.24-1.81-.72l1.06-1.01h4.25l1.04,1.01c-.5.48-1.11.72-1.81.72h-2.73Zm0-13.31h2.73c.71,0,1.31.24,1.81.72l-1.04,1.01h-4.25l-1.06-1.01c.5-.48,1.11-.72,1.81-.72Zm-1.81-2.66l1.06-1.01h4.25l1.04,1.01c-.5.48-1.11.72-1.81.72h-2.73c-.71,0-1.31-.24-1.81-.72Zm5.42,14.13v-3.88l1.03-.82c.49.51.74,1.13.74,1.84v2.05c0,.73-.24,1.33-.72,1.81l-1.04-1.01Zm1.03-4.92l-1.03-.82v-3.88l1.04-1.01c.48.48.72,1.09.72,1.81v2.05c0,.72-.25,1.33-.74,1.84Zm.02-9.32l-1.04-1.01v-3.88l1.03-.82c.49.51.74,1.13.74,1.84v2.05c0,.73-.24,1.33-.72,1.81Zm-.02-5.93l-1.03-.82v-3.88l1.04-1.01c.48.48.72,1.09.72,1.81v2.05c0,.72-.25,1.33-.74,1.84Zm-1.06-9.05h-2.73c-.71,0-1.31-.24-1.81-.72l1.06-1.01h4.25l1.04,1.01c-.5.48-1.11.72-1.81.72Zm.88-1.84v-3.88l1.03-.82c.49.51.74,1.13.74,1.84v2.05c0,.73-.24,1.33-.72,1.81l-1.04-1.01Zm-3.61-11.47h2.73c.71,0,1.31.24,1.81.72l-1.04,1.01h-4.25l-1.06-1.01c.5-.48,1.11-.72,1.81-.72Zm-2.65,2.65c0-.73.24-1.33.72-1.81l1.06,1.01v3.88l-1.04.82c-.49-.51-.74-1.13-.74-1.84v-2.05Zm0,5.97c0-.72.25-1.33.74-1.84l1.04.82v3.88l-1.06,1.01c-.48-.48-.72-1.09-.72-1.81v-2.05Zm1.8,7.2h2.73c.71,0,1.31.24,1.81.72l-1.04,1.01h-4.25l-1.06-1.01c.5-.48,1.11-.72,1.81-.72Zm-2.65,2.65c0-.73.24-1.33.72-1.81l1.06,1.01v3.88l-1.04.82c-.49-.51-.74-1.13-.74-1.84v-2.05Zm0,5.97c0-.72.25-1.33.74-1.84l1.04.82v3.88l-1.06,1.01c-.48-.48-.72-1.09-.72-1.81v-2.05Zm0,9.28c0-.73.24-1.33.72-1.81l1.06,1.01v3.88l-1.04.82c-.49-.51-.74-1.13-.74-1.84v-2.05Zm0,5.97c0-.72.25-1.33.74-1.84l1.04.82v3.88l-1.06,1.01c-.48-.48-.72-1.09-.72-1.81v-2.05Zm-8.98,10.13v2.05c0,.72-.25,1.33-.74,1.84l-1.03-.82v-3.88l1.04-1.01c.48.48.72,1.09.72,1.81Zm-4.46,18.96l-1.03-.82v-3.88l1.04-1.01c.48.48.72,1.09.72,1.81v2.05c0,.72-.25,1.33-.74,1.84Zm.74,2.07v2.05c0,.73-.24,1.33-.72,1.81l-1.04-1.01v-3.88l1.03-.82c.49.51.74,1.13.74,1.84Zm-1.65-10.36c-.71,0-1.31-.24-1.81-.72l1.06-1.01h4.25l1.04,1.01c-.5.48-1.11.72-1.81.72h-2.73Zm3.61-1.84v-3.88l1.03-.82c.49.51.74,1.13.74,1.84v2.05c0,.73-.24,1.33-.72,1.81l-1.04-1.01Zm-3.5-25.37l1.04-1.01c.48.48.72,1.09.72,1.81v2.05c0,.72-.25,1.33-.74,1.84l-1.03-.82v-3.88Zm0,5.74l1.03-.82c.49.51.74,1.13.74,1.84v2.05c0,.73-.24,1.33-.72,1.81l-1.04-1.01v-3.88Zm-.11,8.16h2.73c.71,0,1.31.24,1.81.72l-1.04,1.01h-4.25l-1.06-1.01c.5-.48,1.11-.72,1.81-.72Zm-2.65,2.65c0-.73.24-1.33.72-1.81l1.06,1.01v3.88l-1.04.82c-.49-.51-.74-1.13-.74-1.84v-2.05Zm0,5.97c0-.72.25-1.33.74-1.84l1.04.82v3.88l-1.06,1.01c-.48-.48-.72-1.09-.72-1.81v-2.05Zm-9.49,12.99l-1.03-.82v-3.88l1.04-1.01c.48.48.72,1.09.72,1.81v2.05c0,.72-.25,1.33-.74,1.84Zm.74,2.07v2.05c0,.73-.24,1.33-.72,1.81l-1.04-1.01v-3.88l1.03-.82c.49.51.74,1.13.74,1.84Zm-1.76-21.83l1.04-1.01c.48.48.72,1.09.72,1.81v2.05c0,.72-.25,1.33-.74,1.84l-1.03-.82v-3.88Zm0,5.74l1.03-.82c.49.51.74,1.13.74,1.84v2.05c0,.73-.24,1.33-.72,1.81l-1.04-1.01v-3.88Zm2.39,22.73c.71,0,1.31.24,1.81.72l-1.04,1.01h-4.25l-1.06-1.01c.5-.48,1.11-.72,1.81-.72h2.73Zm-5.21-50.7l1.04-1.01c.48.48.72,1.09.72,1.81v2.05c0,.72-.25,1.33-.74,1.84l-1.03-.82v-3.88Zm0,5.74l1.03-.82c.49.51.74,1.13.74,1.84v2.05c0,.73-.24,1.33-.72,1.81l-1.04-1.01v-3.88Zm-.16,47.6c0-.73.24-1.33.72-1.81l1.06,1.01v3.88l-1.04.82c-.49-.51-.74-1.13-.74-1.84v-2.05Zm0,8.02v-2.05c0-.72.25-1.33.74-1.84l1.04.82v3.88l-1.06,1.01c-.48-.48-.72-1.09-.72-1.81Zm4.75,16.29c0,.73-.24,1.33-.72,1.81l-1.04-1.01v-3.88l1.03-.82c.49.51.74,1.13.74,1.84v2.05Zm0-5.97c0,.72-.25,1.33-.74,1.85l-1.03-.82v-3.88l1.04-1.01c.48.48.72,1.09.72,1.81v2.05Zm.62-7.67h-2.73c-.71,0-1.31-.24-1.81-.72l1.06-1.01h4.25l1.04,1.01c-.5.48-1.11.72-1.81.72Zm2.65-2.65c0,.73-.24,1.33-.72,1.81l-1.04-1.01v-3.88l1.03-.82c.49.51.74,1.13.74,1.84v2.05Zm0-5.97c0,.72-.25,1.33-.74,1.84l-1.03-.82v-3.88l1.04-1.01c.48.48.72,1.09.72,1.81v2.05Zm10.08,52.13c.5-.48,1.11-.72,1.81-.72h2.73c.71,0,1.31.24,1.81.72l-1.04,1.01h-4.25l-1.06-1.01Zm.95,1.12v3.88l-1.04.82c-.49-.51-.74-1.13-.74-1.84v-2.05c0-.73.24-1.33.72-1.81l1.06,1.01Zm-.6-21.9c0,.72-.25,1.33-.74,1.85l-1.03-.82v-3.88l1.04-1.01c.48.48.72,1.09.72,1.81v2.05Zm-.74,2.07c.49.51.74,1.13.74,1.84v2.05c0,.73-.24,1.33-.72,1.81l-1.04-1.01v-3.88l1.03-.82Zm-.44,28.66v-2.05c0-.72.25-1.33.74-1.84l1.04.82v3.88l-1.06,1.01c-.48-.48-.72-1.09-.72-1.81Zm5.37,2.65h-2.73c-.71,0-1.31-.24-1.81-.72l1.06-1.01h4.25l1.04,1.01c-.5.48-1.11.72-1.81.72Zm2.65-2.65c0,.73-.24,1.33-.72,1.81l-1.04-1.01v-3.88l1.03-.82c.49.51.74,1.13.74,1.84v2.05Zm0-5.97c0,.72-.25,1.33-.74,1.84l-1.03-.82v-3.88l1.04-1.01c.48.48.72,1.09.72,1.81v2.05Zm4.65-18.79v-2.05c0-.72.25-1.33.74-1.84l1.04.82v3.88l-1.06,1.01c-.48-.48-.72-1.09-.72-1.81Zm5.34,16c0,.73-.24,1.33-.72,1.81l-1.04-1.01v-3.88l1.03-.82c.49.51.74,1.13.74,1.84v2.05Zm0-5.97c0,.72-.25,1.33-.74,1.84l-1.03-.82v-3.88l1.04-1.01c.48.48.72,1.09.72,1.81v2.05Zm.04-7.39h-2.73c-.71,0-1.31-.24-1.81-.72l1.06-1.01h4.25l1.04,1.01c-.5.48-1.11.72-1.81.72Zm7.68-2.65v-2.05c0-.72.25-1.33.74-1.84l1.04.82v3.88l-1.06,1.01c-.48-.48-.72-1.09-.72-1.81Zm5.34,16c0,.73-.24,1.33-.72,1.81l-1.04-1.01v-3.88l1.03-.82c.49.51.74,1.13.74,1.84v2.05Zm0-5.97c0,.72-.25,1.33-.74,1.84l-1.03-.82v-3.88l1.04-1.01c.48.48.72,1.09.72,1.81v2.05Zm.04-7.39h-2.73c-.71,0-1.31-.24-1.81-.72l1.06-1.01h4.25l1.04,1.01c-.5.48-1.11.72-1.81.72Zm2.65-2.65c0,.73-.24,1.33-.72,1.81l-1.04-1.01v-3.88l1.03-.82c.49.51.74,1.13.74,1.84v2.05Zm10.37-28.12l-5.5,3.03s-.09.04-.14.04c-.01.46-.04.91-.08,1.36.07.01.13.04.19.08l4.92,3.82c.16.13.22.36.15.58l-1.89,5.22c-.08.22-.29.37-.51.35l-6.19-.58c-.32.48-.66.95-1.02,1.41.03.03.05.07.07.12l2.11,5.86c.07.2,0,.43-.18.56l-4.39,3.4c-.19.15-.44.15-.61.02l-3.54-2.74v.66l-1.04.82c-.49-.51-.74-1.13-.74-1.85v-.58c-.42.17-.84.34-1.28.48.02.07.02.15,0,.22l-1.62,6.01c-.05.2-.25.35-.47.36l-1.73.09c-.1.46-.31.86-.65,1.2l-1.04-1.01v-.11l-2.11.1c-.24.01-.45-.13-.52-.33l-1.8-5.76s-.03,0-.04,0v.36l-1.04.82c-.43-.44-.66-.97-.71-1.56-.09-.02-.18-.04-.26-.06-.01.01-.02.03-.03.04l-4.56,4.25c-.15.14-.39.16-.59.05l-4.85-2.7c-.21-.12-.32-.35-.26-.56l1.57-6.05c-.41-.39-.79-.79-1.17-1.21,0,0-.02,0-.03,0l-6.12,1.15c-.2.04-.42-.07-.53-.27l-2.66-4.87c-.11-.21-.08-.46.08-.61l4.58-4.3s.03-.02.04-.03c-.14-.6-.25-1.2-.34-1.82-.07,0-.14,0-.21-.03l-5.7-2.52c-.19-.08-.3-.3-.28-.52l.57-5.52c.02-.24.19-.43.41-.46l6.21-.94s.03,0,.05,0c.19-.52.4-1.03.63-1.53-.05-.03-.1-.07-.14-.13l-3.47-5.18c-.12-.17-.1-.41.04-.59l3.44-4.36c.15-.19.39-.26.59-.17l5.75,2.53s.08.04.11.07c.38-.29.78-.56,1.18-.83,0-.03-.01-.06-.01-.09l-.19-6.23c0-.21.14-.4.35-.48l5.23-1.87c.22-.08.47,0,.59.17l3.53,5.18v-3.54l1.03-.82c.49.51.74,1.13.74,1.84v1.94l2.9-4.91c.11-.18.33-.27.55-.22l5.42,1.21c.23.05.4.24.41.46l.21,6.28s0,.08-.01.11c.34.18.68.37,1.01.57.04-.05.09-.1.16-.13l5.59-2.75c.19-.09.42-.04.58.12l3.86,3.99c.17.17.2.42.09.61l-3.2,5.25c.24.41.48.83.69,1.25.02,0,.03,0,.05,0l6.22.4c.21.01.39.17.44.39l1.37,5.38c.06.23-.03.47-.22.57Zm-14.82-17.68v-3.88l1.03-.82c.49.51.74,1.13.74,1.84v2.05c0,.73-.24,1.33-.72,1.81l-1.04-1.01Zm19.56,61.8c0,.73-.24,1.33-.72,1.81l-1.04-1.01v-3.88l1.03-.82c.49.51.74,1.13.74,1.84v2.05Zm-1.76-15.2v-3.88l1.03-.82c.49.51.74,1.13.74,1.84v2.05c0,.73-.24,1.33-.72,1.81l-1.04-1.01Zm1.76,9.24c0,.72-.25,1.33-.74,1.85l-1.03-.82v-3.88l1.04-1.01c.48.48.72,1.09.72,1.81v2.05Zm8.76,5.97v-2.05c0-.72.25-1.33.74-1.84l1.04.82v3.88l-1.06,1.01c-.48-.48-.72-1.09-.72-1.81Zm1.78-8.82v3.88l-1.04.82c-.49-.51-.74-1.13-.74-1.85v-2.05c0-.73.24-1.33.72-1.81l1.06,1.01Zm-.95-1.12c.5-.48,1.11-.72,1.81-.72h2.73c.71,0,1.31.24,1.81.72l-1.04,1.01h-4.25l-1.06-1.01Zm4.54,12.59h-2.73c-.71,0-1.31-.24-1.81-.72l1.06-1.01h4.25l1.04,1.01c-.5.48-1.11.72-1.81.72Zm2.65-2.65c0,.73-.24,1.33-.72,1.81l-1.04-1.01v-3.88l1.03-.82c.49.51.74,1.13.74,1.84v2.05Zm0-5.97c0,.72-.25,1.33-.74,1.85l-1.03-.82v-3.88l1.04-1.01c.48.48.72,1.09.72,1.81v2.05Zm19.7,9.73c0,.73-.24,1.33-.72,1.81l-1.04-1.01v-3.88l1.03-.82c.49.51.74,1.13.74,1.84v2.05Zm0-5.97c0,.72-.25,1.33-.74,1.84l-1.03-.82v-3.88l1.04-1.01c.48.48.72,1.09.72,1.81v2.05Zm-.26-23.39c-.02.18-.16.32-.32.34l-4.67.57c-.16.41-.33.81-.53,1.2.03.02.05.05.07.08l2.51,3.99c.08.13.07.32-.04.45l-2.69,3.22c-.12.14-.3.19-.45.12l-4.29-2.03c-.36.26-.73.5-1.11.73.03.05.04.1.04.16l-.23,4.71c0,.16-.13.3-.29.34l-4.05,1.1c-.17.05-.35-.02-.44-.16l-2.26-3.97c-.34.02-.68.02-1.03.01-.11.19-.23.37-.39.53l-.33-.32-.09.13.31.3c-.27.26-.57.44-.91.56l-1.86,2.69c-.09.13-.26.18-.43.13l-4.02-1.21c-.17-.05-.29-.2-.28-.37l.18-4.72c-.36-.22-.72-.46-1.06-.71,0,0-.01,0-.02.01l-4.34,1.84c-.14.06-.32.01-.43-.12l-2.75-3.17c-.12-.14-.14-.33-.04-.46l2.69-3.92s.02-.02.02-.03c-.2-.42-.38-.85-.55-1.29-.05.02-.1.02-.16,0l-2.31-.47c.21.37.32.79.32,1.27v2.05c0,.72-.25,1.33-.74,1.85l-1.03-.82v-3.88l.65-.63-1.51-.31c-.15-.03-.27-.17-.29-.34l-.47-4.17c-.02-.18.07-.35.23-.41l1.4-.54v-2.93l1.03-.82c.49.51.74,1.13.74,1.84v1.23l1.28-.49s.02,0,.03,0c.06-.41.13-.83.22-1.23-.05-.01-.09-.04-.13-.07l-1.89-1.81c-.08.11-.16.22-.25.32l-1.03-.82v-.73l-.23-.22c-.11-.11-.14-.29-.06-.44l.3-.61v-1.88l1.04-1.01c.09.09.16.18.23.28l.27-.56c.08-.16.25-.25.41-.22l4.66.94s.06.02.09.04c.24-.28.48-.54.74-.8,0-.02-.02-.04-.02-.06l-1.15-4.57c-.04-.15.04-.32.18-.41l3.56-2.23c.15-.1.34-.08.46.03l3.45,3.27s.03.03.04.04c.34-.1.68-.19,1.03-.27,0-.03,0-.07.01-.1l1.47-4.48c.05-.15.2-.25.37-.25l4.2.02c.18,0,.34.11.38.27l1.17,4.61s.01.06,0,.09c.28.08.56.16.84.26.02-.05.05-.09.09-.12l3.69-2.93c.09-.07.21-.09.33-.06v-.51c0-.72.25-1.33.74-1.84l1.04.82v2.7l1.84,1.22s.06.05.08.08h2.44l1.04,1.01c-.5.48-1.11.72-1.81.72h-2.07l-1.04,3.03c.25.26.49.53.71.81.01,0,.02,0,.04-.01l4.66-.71c.16-.02.32.07.39.22l1.88,3.75c.08.16.05.35-.07.46l-3.58,3.13s-.06.04-.1.06c.07.34.12.68.16,1.01.05,0,.1,0,.15.03l4.26,2.03c.14.07.22.23.2.4l-.55,4.16Zm-3.14-24.91c.49.51.74,1.13.74,1.84v2.05c0,.73-.24,1.33-.72,1.81l-1.04-1.01v-3.88l1.03-.82Zm-1.03-1.04v-3.88l1.04-1.01c.48.48.72,1.09.72,1.81v2.05c0,.72-.25,1.33-.74,1.84l-1.03-.82Zm5.06-16.61c-.09.26-.33.42-.58.4l-7.1-.66c-.37.55-.76,1.09-1.17,1.61.03.04.06.08.08.13l2.43,6.73c.08.22,0,.49-.21.65l-2.71,2.1c.19-.04.39-.07.6-.07h2.73c.71,0,1.31.24,1.81.72l-1.04,1.01h-4.25l-.89-.85-.13.1.91.86v3.88l-1.04.82c-.49-.51-.74-1.13-.74-1.84v-2.05c0-.46.11-.86.29-1.22l-.57.44c-.22.17-.51.18-.7.03l-5.7-4.4c-.61.27-1.24.51-1.88.72.02.08.02.17,0,.25l-1.86,6.9c-.06.23-.28.4-.54.41l-6.36.31c-.27.01-.52-.14-.59-.38l-2.07-6.61c-.8-.13-1.59-.31-2.36-.52-.01.02-.02.03-.04.05l-5.23,4.87c-.17.16-.45.19-.68.06l-5.57-3.1c-.24-.13-.36-.4-.3-.64l1.8-6.94c-.47-.45-.91-.91-1.34-1.39-.01,0-.02,0-.03,0l-7.03,1.32c-.23.04-.48-.08-.61-.31l-2.24-4.11v.28c0,.72-.25,1.33-.74,1.84l-1.03-.82v-3.88l1.04-1.01c.26.26.44.55.56.87l4.7-4.41s.03-.02.04-.03c-.16-.68-.29-1.38-.39-2.09-.08,0-.16,0-.24-.04l-6.54-2.89c-.22-.1-.35-.34-.32-.6l.66-6.33c.03-.27.22-.49.47-.53l7.13-1.08s.03,0,.05,0c.22-.6.46-1.18.73-1.75-.06-.04-.12-.08-.16-.15l-2.71-4.05v1.75c0,.73-.24,1.33-.72,1.81l-1.04-1.01v-3.88l.57-.45-.07-.11c-.13-.2-.11-.48.05-.68l.09-.11-.63-.5v-3.88l1.04-1.01c.48.48.72,1.09.72,1.81v2.05s0,.07,0,.11l2.74-3.47c.17-.21.45-.29.68-.19l6.6,2.9s.09.05.13.08c.44-.33.89-.65,1.36-.95,0-.03-.02-.07-.02-.1l-.22-7.15c0-.24.16-.46.4-.55l1.13-.4v-3.42l1.03-.82c.49.51.74,1.13.74,1.84v1.77l3.1-1.11c.26-.09.54-.01.68.19l4.05,5.96s.03.05.04.08c.53-.04,1.07-.07,1.61-.07.01-.05.03-.1.05-.14l2.79-4.73v-2.97l1.03-.82c.49.51.74,1.13.74,1.84v.33l5.93,1.33c.27.06.46.28.47.53l.24,7.21s0,.09-.01.13c.39.21.78.43,1.16.66.05-.06.1-.12.18-.15l6.42-3.15c.21-.11.49-.05.67.14l4.43,4.58c.19.2.23.48.1.7l-3.68,6.03c.28.47.55.95.79,1.44.02,0,.04,0,.06,0l7.13.46c.24.02.45.2.51.45l1.57,6.17c.07.26-.04.54-.26.66l-6.32,3.47c-.05.03-.11.04-.16.05-.01.52-.04,1.04-.09,1.56.08.01.15.04.22.09l5.65,4.38c.19.15.26.42.17.66l-2.17,5.99Zm1.74,21.55v-2.05c0-.72.25-1.33.74-1.84l1.04.82v3.88l-1.06,1.01c-.48-.48-.72-1.09-.72-1.81Zm5.2,15.53c0,.73-.24,1.33-.72,1.81l-1.04-1.01v-3.88l1.03-.82c.49.51.74,1.13.74,1.84v2.05Zm0-5.97c0,.72-.25,1.33-.74,1.85l-1.03-.82v-3.88l1.04-1.01c.48.48.72,1.09.72,1.81v2.05Zm.17-6.92h-2.73c-.71,0-1.31-.24-1.81-.72l1.06-1.01h4.25l1.04,1.01c-.5.48-1.11.72-1.81.72Zm2.65-2.65c0,.73-.24,1.33-.72,1.81l-1.04-1.01v-3.88l1.03-.82c.49.51.74,1.13.74,1.84v2.05Zm0-5.97c0,.72-.25,1.33-.74,1.84l-1.03-.82v-3.88l1.04-1.01c.48.48.72,1.09.72,1.81v2.05Zm-1.72-50.49h-2.73c-.71,0-1.31-.24-1.81-.72l1.06-1.01h4.25l1.04,1.01c-.5.48-1.11.72-1.81.72Zm2.65-2.65c0,.73-.24,1.33-.72,1.81l-1.04-1.01v-3.88l1.03-.82c.49.51.74,1.13.74,1.84v2.05Zm0-5.97c0,.72-.25,1.33-.74,1.84l-1.03-.82v-3.88l1.04-1.01c.48.48.72,1.09.72,1.81v2.05Zm7.07,73.15c0-.73.24-1.33.72-1.81l1.06,1.01v3.88l-1.04.82c-.49-.51-.74-1.13-.74-1.85v-2.05Zm0,8.02v-2.05c0-.72.25-1.33.74-1.84l1.04.82v3.88l-1.06,1.01c-.48-.48-.72-1.09-.72-1.81Zm5.37,2.65h-2.73c-.71,0-1.31-.24-1.81-.72l1.06-1.01h4.25l1.04,1.01c-.5.48-1.11.72-1.81.72Zm2.65-2.65c0,.73-.24,1.33-.72,1.81l-1.04-1.01v-3.88l1.03-.82c.49.51.74,1.13.74,1.84v2.05Zm0-8.02v2.05c0,.72-.25,1.33-.74,1.85l-1.03-.82v-3.88l1.04-1.01c.48.48.72,1.09.72,1.81Zm-2.65-2.65c.71,0,1.31.24,1.81.72l-1.04,1.01h-4.25l-1.06-1.01c.5-.48,1.11-.72,1.81-.72h2.73Zm.95-28.64c0,.73-.24,1.33-.72,1.81l-1.04-1.01v-3.88l1.03-.82c.49.51.74,1.13.74,1.84v2.05Zm0-5.97c0,.72-.25,1.33-.74,1.84l-1.03-.82v-3.88l1.04-1.01c.48.48.72,1.09.72,1.81v2.05Z"/>
      </g>
      <g>
        <circle class="cls-6" cx="651.4" cy="100.72" r="27.61"/>
        <g>
          <polygon class="cls-1" points="648.73 106.73 654.18 106.69 653.46 118.01 649.66 118.04 648.73 106.73"/>
          <polygon class="cls-1" points="644.86 101.41 647.62 106.1 637.45 111.14 635.53 107.87 644.86 101.41"/>
          <polygon class="cls-1" points="647.53 95.4 644.85 100.14 635.4 93.85 637.27 90.54 647.53 95.4"/>
          <polygon class="cls-1" points="654.08 94.7 648.63 94.75 649.35 83.42 653.15 83.39 654.08 94.7"/>
          <polygon class="cls-1" points="657.95 100.03 655.18 95.33 665.36 90.29 667.28 93.57 657.95 100.03"/>
          <polygon class="cls-1" points="655.28 106.04 657.96 101.3 667.41 107.59 665.54 110.89 655.28 106.04"/>
        </g>
        <circle class="cls-5" cx="651.4" cy="100.72" r="23.41"/>
        <circle class="cls-5" cx="651.4" cy="100.72" r="17.54"/>
        <circle class="cls-5" cx="651.4" cy="100.72" r="5.18"/>
        <g>
          <rect class="cls-4" x="675.19" y="98.48" width="16.29" height="4.64" transform="translate(785.85 -582.28) rotate(90.14)"/>
          <rect class="cls-4" x="665.78" y="121.04" width="16.29" height="4.64" transform="translate(1238.66 -264.54) rotate(135.14)"/>
          <rect class="cls-4" x="643.17" y="130.33" width="16.29" height="4.64" transform="translate(1302.3 266.94) rotate(-179.86)"/>
          <rect class="cls-4" x="620.62" y="120.92" width="16.29" height="4.64" transform="translate(984.88 655.88) rotate(-134.86)"/>
          <rect class="cls-4" x="611.32" y="98.32" width="16.29" height="4.64" transform="translate(517.27 719.85) rotate(-89.86)"/>
          <rect class="cls-4" x="620.73" y="75.76" width="16.29" height="4.64" transform="translate(128.01 466.29) rotate(-44.86)"/>
          <rect class="cls-4" x="643.33" y="66.46" width="16.29" height="4.64" transform="translate(.17 -1.63) rotate(.14)"/>
          <rect class="cls-4" x="665.89" y="75.87" width="16.29" height="4.64" transform="translate(254.05 -454.77) rotate(45.14)"/>
        </g>
      </g>
      <g>
        <circle class="cls-6" cx="475.73" cy="100.72" r="27.61"/>
        <g>
          <polygon class="cls-1" points="473.06 106.73 478.51 106.69 477.79 118.01 473.99 118.04 473.06 106.73"/>
          <polygon class="cls-1" points="469.19 101.41 471.95 106.1 461.78 111.14 459.86 107.87 469.19 101.41"/>
          <polygon class="cls-1" points="471.86 95.4 469.18 100.14 459.73 93.85 461.6 90.54 471.86 95.4"/>
          <polygon class="cls-1" points="478.41 94.7 472.96 94.75 473.68 83.42 477.48 83.39 478.41 94.7"/>
          <polygon class="cls-1" points="482.28 100.03 479.51 95.33 489.68 90.29 491.61 93.57 482.28 100.03"/>
          <polygon class="cls-1" points="479.6 106.04 482.29 101.3 491.74 107.59 489.87 110.89 479.6 106.04"/>
        </g>
        <circle class="cls-5" cx="475.73" cy="100.72" r="23.41"/>
        <circle class="cls-5" cx="475.73" cy="100.72" r="17.54"/>
        <circle class="cls-5" cx="475.73" cy="100.72" r="5.18"/>
        <g>
          <rect class="cls-4" x="499.52" y="98.48" width="16.29" height="4.64" transform="translate(609.74 -406.61) rotate(90.14)"/>
          <rect class="cls-4" x="490.11" y="121.04" width="16.29" height="4.64" transform="translate(938.46 -140.63) rotate(135.14)"/>
          <rect class="cls-4" x="467.5" y="130.33" width="16.29" height="4.64" transform="translate(950.96 266.5) rotate(-179.86)"/>
          <rect class="cls-4" x="444.95" y="120.92" width="16.29" height="4.64" transform="translate(685.3 531.36) rotate(-134.86)"/>
          <rect class="cls-4" x="435.65" y="98.32" width="16.29" height="4.64" transform="translate(342.04 544.18) rotate(-89.86)"/>
          <rect class="cls-4" x="445.06" y="75.76" width="16.29" height="4.64" transform="translate(76.87 342.39) rotate(-44.86)"/>
          <rect class="cls-4" x="467.66" y="66.46" width="16.29" height="4.64" transform="translate(.17 -1.19) rotate(.14)"/>
          <rect class="cls-4" x="490.22" y="75.87" width="16.29" height="4.64" transform="translate(202.28 -330.24) rotate(45.14)"/>
        </g>
      </g>
    </g>
  </g>
</svg>